<svg width="236" height="37" viewBox="0 0 236 37" fill="none" xmlns="http://www.w3.org/2000/svg">
<g filter="url(#filter0_d_7_62)">
<mask id="path-1-outside-1_7_62" maskUnits="userSpaceOnUse" x="153" y="7" width="76" height="22" fill="black">
<rect fill="white" x="153" y="7" width="76" height="22"/>
<path d="M173.675 27H169.587L167.962 22.7725H160.522L158.986 27H155L162.249 8.38867H166.223L173.675 27ZM166.756 19.6367L164.191 12.7305L161.678 19.6367H166.756ZM180.737 27L175.304 13.5176H179.049L181.588 20.3984L182.324 22.6963C182.519 22.1123 182.642 21.7272 182.693 21.541C182.811 21.1602 182.938 20.7793 183.073 20.3984L185.638 13.5176H189.307L183.949 27H180.737ZM193.843 11.6895V8.38867H197.41V11.6895H193.843ZM193.843 27V13.5176H197.41V27H193.843ZM209.602 13.5176V16.3613H207.165V21.7949C207.165 22.8952 207.186 23.5384 207.228 23.7246C207.279 23.9023 207.385 24.0505 207.545 24.1689C207.715 24.2874 207.918 24.3467 208.155 24.3467C208.485 24.3467 208.963 24.2324 209.589 24.0039L209.894 26.7715C209.065 27.127 208.125 27.3047 207.076 27.3047C206.432 27.3047 205.853 27.1989 205.336 26.9873C204.82 26.7673 204.439 26.488 204.194 26.1494C203.957 25.8024 203.792 25.3369 203.699 24.7529C203.623 24.3382 203.584 23.5003 203.584 22.2393V16.3613H201.947V13.5176H203.584V10.8389L207.165 8.75684V13.5176H209.602ZM213.592 20.0684C213.592 18.8835 213.884 17.7367 214.468 16.6279C215.052 15.5192 215.878 14.6729 216.944 14.0889C218.019 13.5049 219.216 13.2129 220.537 13.2129C222.576 13.2129 224.248 13.8773 225.551 15.2061C226.855 16.5264 227.506 18.1979 227.506 20.2207C227.506 22.2604 226.846 23.9531 225.526 25.2988C224.214 26.6361 222.56 27.3047 220.562 27.3047C219.326 27.3047 218.146 27.0254 217.02 26.4668C215.903 25.9082 215.052 25.0915 214.468 24.0166C213.884 22.9333 213.592 21.6172 213.592 20.0684ZM217.249 20.2588C217.249 21.596 217.566 22.6201 218.201 23.3311C218.836 24.042 219.618 24.3975 220.549 24.3975C221.48 24.3975 222.259 24.042 222.885 23.3311C223.52 22.6201 223.838 21.5876 223.838 20.2334C223.838 18.9131 223.52 17.8975 222.885 17.1865C222.259 16.4756 221.48 16.1201 220.549 16.1201C219.618 16.1201 218.836 16.4756 218.201 17.1865C217.566 17.8975 217.249 18.9215 217.249 20.2588Z"/>
</mask>
<path d="M173.675 27H169.587L167.962 22.7725H160.522L158.986 27H155L162.249 8.38867H166.223L173.675 27ZM166.756 19.6367L164.191 12.7305L161.678 19.6367H166.756ZM180.737 27L175.304 13.5176H179.049L181.588 20.3984L182.324 22.6963C182.519 22.1123 182.642 21.7272 182.693 21.541C182.811 21.1602 182.938 20.7793 183.073 20.3984L185.638 13.5176H189.307L183.949 27H180.737ZM193.843 11.6895V8.38867H197.41V11.6895H193.843ZM193.843 27V13.5176H197.41V27H193.843ZM209.602 13.5176V16.3613H207.165V21.7949C207.165 22.8952 207.186 23.5384 207.228 23.7246C207.279 23.9023 207.385 24.0505 207.545 24.1689C207.715 24.2874 207.918 24.3467 208.155 24.3467C208.485 24.3467 208.963 24.2324 209.589 24.0039L209.894 26.7715C209.065 27.127 208.125 27.3047 207.076 27.3047C206.432 27.3047 205.853 27.1989 205.336 26.9873C204.82 26.7673 204.439 26.488 204.194 26.1494C203.957 25.8024 203.792 25.3369 203.699 24.7529C203.623 24.3382 203.584 23.5003 203.584 22.2393V16.3613H201.947V13.5176H203.584V10.8389L207.165 8.75684V13.5176H209.602ZM213.592 20.0684C213.592 18.8835 213.884 17.7367 214.468 16.6279C215.052 15.5192 215.878 14.6729 216.944 14.0889C218.019 13.5049 219.216 13.2129 220.537 13.2129C222.576 13.2129 224.248 13.8773 225.551 15.2061C226.855 16.5264 227.506 18.1979 227.506 20.2207C227.506 22.2604 226.846 23.9531 225.526 25.2988C224.214 26.6361 222.56 27.3047 220.562 27.3047C219.326 27.3047 218.146 27.0254 217.02 26.4668C215.903 25.9082 215.052 25.0915 214.468 24.0166C213.884 22.9333 213.592 21.6172 213.592 20.0684ZM217.249 20.2588C217.249 21.596 217.566 22.6201 218.201 23.3311C218.836 24.042 219.618 24.3975 220.549 24.3975C221.48 24.3975 222.259 24.042 222.885 23.3311C223.52 22.6201 223.838 21.5876 223.838 20.2334C223.838 18.9131 223.52 17.8975 222.885 17.1865C222.259 16.4756 221.48 16.1201 220.549 16.1201C219.618 16.1201 218.836 16.4756 218.201 17.1865C217.566 17.8975 217.249 18.9215 217.249 20.2588Z" fill="#011765"/>
<path d="M173.675 27V28H175.152L174.603 26.6283L173.675 27ZM169.587 27L168.653 27.3588L168.9 28H169.587V27ZM167.962 22.7725L168.895 22.4137L168.649 21.7725H167.962V22.7725ZM160.522 22.7725V21.7725H159.822L159.583 22.4309L160.522 22.7725ZM158.986 27V28H159.687L159.926 27.3415L158.986 27ZM155 27L154.068 26.6371L153.537 28H155V27ZM162.249 8.38867V7.38867H161.565L161.317 8.02573L162.249 8.38867ZM166.223 8.38867L167.151 8.01695L166.899 7.38867H166.223V8.38867ZM166.756 19.6367V20.6367H168.194L167.693 19.2886L166.756 19.6367ZM164.191 12.7305L165.129 12.3824L164.182 9.83245L163.252 12.3884L164.191 12.7305ZM161.678 19.6367L160.738 19.2947L160.25 20.6367H161.678V19.6367ZM173.675 26H169.587V28H173.675V26ZM170.52 26.6412L168.895 22.4137L167.028 23.1313L168.653 27.3588L170.52 26.6412ZM167.962 21.7725H160.522V23.7725H167.962V21.7725ZM159.583 22.4309L158.046 26.6585L159.926 27.3415L161.462 23.114L159.583 22.4309ZM158.986 26H155V28H158.986V26ZM155.932 27.3629L163.181 8.75161L161.317 8.02573L154.068 26.6371L155.932 27.3629ZM162.249 9.38867H166.223V7.38867H162.249V9.38867ZM165.294 8.76039L172.746 27.3717L174.603 26.6283L167.151 8.01695L165.294 8.76039ZM167.693 19.2886L165.129 12.3824L163.254 13.0786L165.818 19.9848L167.693 19.2886ZM163.252 12.3884L160.738 19.2947L162.617 19.9787L165.131 13.0725L163.252 12.3884ZM161.678 20.6367H166.756V18.6367H161.678V20.6367ZM180.737 27L179.81 27.3738L180.062 28H180.737V27ZM175.304 13.5176V12.5176H173.823L174.376 13.8914L175.304 13.5176ZM179.049 13.5176L179.987 13.1714L179.746 12.5176H179.049V13.5176ZM181.588 20.3984L182.54 20.0933L182.534 20.0726L182.526 20.0523L181.588 20.3984ZM182.324 22.6963L181.372 23.0014L182.306 25.9148L183.273 23.0125L182.324 22.6963ZM182.693 21.541L181.738 21.2439L181.732 21.2608L181.728 21.2779L182.693 21.541ZM183.073 20.3984L182.136 20.0492L182.134 20.0563L182.131 20.0634L183.073 20.3984ZM185.638 13.5176V12.5176H184.943L184.701 13.1684L185.638 13.5176ZM189.307 13.5176L190.236 13.8869L190.78 12.5176H189.307V13.5176ZM183.949 27V28H184.628L184.879 27.3693L183.949 27ZM181.665 26.6262L176.231 13.1438L174.376 13.8914L179.81 27.3738L181.665 26.6262ZM175.304 14.5176H179.049V12.5176H175.304V14.5176ZM178.111 13.8638L180.65 20.7446L182.526 20.0523L179.987 13.1714L178.111 13.8638ZM180.636 20.7036L181.372 23.0014L183.277 22.3911L182.54 20.0933L180.636 20.7036ZM183.273 23.0125C183.466 22.4341 183.598 22.022 183.657 21.8041L181.728 21.2779C181.686 21.4325 181.572 21.7905 181.376 22.3801L183.273 23.0125ZM183.647 21.8381C183.762 21.4701 183.885 21.1019 184.016 20.7334L182.131 20.0634C181.991 20.4567 181.86 20.8502 181.738 21.2439L183.647 21.8381ZM184.01 20.7477L186.575 13.8668L184.701 13.1684L182.136 20.0492L184.01 20.7477ZM185.638 14.5176H189.307V12.5176H185.638V14.5176ZM188.377 13.1483L183.02 26.6307L184.879 27.3693L190.236 13.8869L188.377 13.1483ZM183.949 26H180.737V28H183.949V26ZM193.843 11.6895H192.843V12.6895H193.843V11.6895ZM193.843 8.38867V7.38867H192.843V8.38867H193.843ZM197.41 8.38867H198.41V7.38867H197.41V8.38867ZM197.41 11.6895V12.6895H198.41V11.6895H197.41ZM193.843 27H192.843V28H193.843V27ZM193.843 13.5176V12.5176H192.843V13.5176H193.843ZM197.41 13.5176H198.41V12.5176H197.41V13.5176ZM197.41 27V28H198.41V27H197.41ZM194.843 11.6895V8.38867H192.843V11.6895H194.843ZM193.843 9.38867H197.41V7.38867H193.843V9.38867ZM196.41 8.38867V11.6895H198.41V8.38867H196.41ZM197.41 10.6895H193.843V12.6895H197.41V10.6895ZM194.843 27V13.5176H192.843V27H194.843ZM193.843 14.5176H197.41V12.5176H193.843V14.5176ZM196.41 13.5176V27H198.41V13.5176H196.41ZM197.41 26H193.843V28H197.41V26ZM209.602 13.5176H210.602V12.5176H209.602V13.5176ZM209.602 16.3613V17.3613H210.602V16.3613H209.602ZM207.165 16.3613V15.3613H206.165V16.3613H207.165ZM207.228 23.7246L206.253 23.9462L206.259 23.973L206.266 23.9993L207.228 23.7246ZM207.545 24.1689L206.952 24.974L206.962 24.9812L206.972 24.9882L207.545 24.1689ZM209.589 24.0039L210.583 23.8945L210.444 22.6276L209.247 23.0645L209.589 24.0039ZM209.894 26.7715L210.288 27.6906L210.969 27.3987L210.888 26.6621L209.894 26.7715ZM205.336 26.9873L204.944 27.9073L204.957 27.9126L205.336 26.9873ZM204.194 26.1494L203.368 26.7134L203.376 26.725L203.384 26.7364L204.194 26.1494ZM203.699 24.7529L204.686 24.5955L204.684 24.5839L204.682 24.5723L203.699 24.7529ZM203.584 16.3613H204.584V15.3613H203.584V16.3613ZM201.947 16.3613H200.947V17.3613H201.947V16.3613ZM201.947 13.5176V12.5176H200.947V13.5176H201.947ZM203.584 13.5176V14.5176H204.584V13.5176H203.584ZM203.584 10.8389L203.082 9.97442L202.584 10.2636V10.8389H203.584ZM207.165 8.75684H208.165V7.01846L206.662 7.89239L207.165 8.75684ZM207.165 13.5176H206.165V14.5176H207.165V13.5176ZM208.602 13.5176V16.3613H210.602V13.5176H208.602ZM209.602 15.3613H207.165V17.3613H209.602V15.3613ZM206.165 16.3613V21.7949H208.165V16.3613H206.165ZM206.165 21.7949C206.165 22.3495 206.17 22.7979 206.181 23.1354C206.191 23.4325 206.206 23.7418 206.253 23.9462L208.203 23.503C208.207 23.5212 208.191 23.4158 208.18 23.0697C208.17 22.764 208.165 22.3406 208.165 21.7949H206.165ZM206.266 23.9993C206.383 24.4073 206.629 24.7356 206.952 24.974L208.139 23.3639C208.135 23.3611 208.145 23.3681 208.159 23.3878C208.174 23.4081 208.184 23.4306 208.19 23.4499L206.266 23.9993ZM206.972 24.9882C207.333 25.241 207.744 25.3467 208.155 25.3467V23.3467C208.12 23.3467 208.105 23.3424 208.105 23.3422C208.104 23.3421 208.106 23.3427 208.109 23.3442C208.113 23.3458 208.116 23.3477 208.119 23.3497L206.972 24.9882ZM208.155 25.3467C208.669 25.3467 209.285 25.1796 209.932 24.9433L209.247 23.0645C208.642 23.2852 208.301 23.3467 208.155 23.3467V25.3467ZM208.595 24.1133L208.9 26.8809L210.888 26.6621L210.583 23.8945L208.595 24.1133ZM209.5 25.8523C208.814 26.1465 208.012 26.3047 207.076 26.3047V28.3047C208.239 28.3047 209.315 28.1074 210.288 27.6906L209.5 25.8523ZM207.076 26.3047C206.543 26.3047 206.095 26.2173 205.716 26.062L204.957 27.9126C205.611 28.1805 206.322 28.3047 207.076 28.3047V26.3047ZM205.729 26.0674C205.324 25.8949 205.112 25.7122 205.003 25.5624L203.384 26.7364C203.767 27.2637 204.316 27.6396 204.944 27.9072L205.729 26.0674ZM205.02 25.5855C204.893 25.3995 204.765 25.0892 204.686 24.5955L202.711 24.9104C202.819 25.5847 203.021 26.2053 203.368 26.7134L205.02 25.5855ZM204.682 24.5723C204.625 24.262 204.584 23.5156 204.584 22.2393H202.584C202.584 23.485 202.62 24.4144 202.715 24.9336L204.682 24.5723ZM204.584 22.2393V16.3613H202.584V22.2393H204.584ZM203.584 15.3613H201.947V17.3613H203.584V15.3613ZM202.947 16.3613V13.5176H200.947V16.3613H202.947ZM201.947 14.5176H203.584V12.5176H201.947V14.5176ZM204.584 13.5176V10.8389H202.584V13.5176H204.584ZM204.087 11.7033L207.667 9.62128L206.662 7.89239L203.082 9.97442L204.087 11.7033ZM206.165 8.75684V13.5176H208.165V8.75684H206.165ZM207.165 14.5176H209.602V12.5176H207.165V14.5176ZM216.944 14.0889L216.467 13.2102L216.464 13.2118L216.944 14.0889ZM225.551 15.2061L224.838 15.9063L224.84 15.9086L225.551 15.2061ZM225.526 25.2988L224.812 24.5985L224.812 24.5985L225.526 25.2988ZM217.02 26.4668L216.573 27.3612L216.576 27.3626L217.02 26.4668ZM214.468 24.0166L213.588 24.4911L213.59 24.494L214.468 24.0166ZM222.885 23.3311L222.139 22.665L222.135 22.67L222.885 23.3311ZM222.885 17.1865L222.135 17.8476L222.139 17.8525L222.885 17.1865ZM214.592 20.0684C214.592 19.0552 214.84 18.0675 215.353 17.094L213.584 16.1619C212.928 17.4058 212.592 18.7117 212.592 20.0684H214.592ZM215.353 17.094C215.849 16.1534 216.536 15.4526 217.424 14.966L216.464 13.2118C215.219 13.8931 214.256 14.8851 213.584 16.1619L215.353 17.094ZM217.421 14.9676C218.338 14.4694 219.37 14.2129 220.537 14.2129V12.2129C219.063 12.2129 217.699 12.5403 216.467 13.2102L217.421 14.9676ZM220.537 14.2129C222.336 14.2129 223.741 14.7886 224.838 15.9063L226.265 14.5058C224.755 12.9659 222.817 12.2129 220.537 12.2129V14.2129ZM224.84 15.9086C225.941 17.024 226.506 18.4348 226.506 20.2207H228.506C228.506 17.961 227.769 16.0288 226.263 14.5035L224.84 15.9086ZM226.506 20.2207C226.506 22.0221 225.933 23.456 224.812 24.5985L226.24 25.9992C227.759 24.4503 228.506 22.4987 228.506 20.2207H226.506ZM224.812 24.5985C223.702 25.7304 222.311 26.3047 220.562 26.3047V28.3047C222.808 28.3047 224.727 27.5417 226.24 25.9991L224.812 24.5985ZM220.562 26.3047C219.483 26.3047 218.455 26.0623 217.465 25.571L216.576 27.3626C217.837 27.9885 219.17 28.3047 220.562 28.3047V26.3047ZM217.467 25.5724C216.529 25.1033 215.831 24.4302 215.347 23.5392L213.59 24.494C214.274 25.7528 215.277 26.7131 216.573 27.3612L217.467 25.5724ZM215.349 23.5421C214.861 22.6375 214.592 21.4935 214.592 20.0684H212.592C212.592 21.7409 212.908 23.229 213.588 24.4911L215.349 23.5421ZM216.249 20.2588C216.249 21.7429 216.601 23.0406 217.455 23.9971L218.947 22.665C218.531 22.1996 218.249 21.4491 218.249 20.2588H216.249ZM217.455 23.9971C218.274 24.9147 219.326 25.3975 220.549 25.3975V23.3975C219.911 23.3975 219.397 23.1692 218.947 22.665L217.455 23.9971ZM220.549 25.3975C221.773 25.3975 222.823 24.9142 223.636 23.9921L222.135 22.67C221.695 23.1698 221.187 23.3975 220.549 23.3975V25.3975ZM223.631 23.9971C224.487 23.0386 224.838 21.7306 224.838 20.2334H222.838C222.838 21.4445 222.553 22.2017 222.139 22.665L223.631 23.9971ZM224.838 20.2334C224.838 18.7623 224.483 17.4749 223.631 16.5205L222.139 17.8525C222.557 18.32 222.838 19.0639 222.838 20.2334H224.838ZM223.636 16.5255C222.823 15.6034 221.773 15.1201 220.549 15.1201V17.1201C221.187 17.1201 221.695 17.3477 222.135 17.8476L223.636 16.5255ZM220.549 15.1201C219.326 15.1201 218.274 15.6028 217.455 16.5205L218.947 17.8525C219.397 17.3483 219.911 17.1201 220.549 17.1201V15.1201ZM217.455 16.5205C216.601 17.477 216.249 18.7746 216.249 20.2588H218.249C218.249 19.0685 218.531 18.3179 218.947 17.8525L217.455 16.5205Z" fill="black" mask="url(#path-1-outside-1_7_62)"/>
</g>
<g filter="url(#filter1_d_7_62)">
<mask id="path-3-outside-2_7_62" maskUnits="userSpaceOnUse" x="3" y="4" width="134" height="25" fill="black">
<rect fill="white" x="3" y="4" width="134" height="25"/>
<path d="M4.2998 27V5.70117H8.63574V23.3818H19.417V27H4.2998ZM22.3906 27V5.52539H26.7266V27H22.3906ZM30.916 27V5.52539H35.1348L43.9238 19.8662V5.52539H47.9521V27H43.6016L34.9443 12.9961V27H30.916ZM66.292 19.1045L70.4961 20.4375C69.8516 22.7812 68.7773 24.5244 67.2734 25.667C65.7793 26.7998 63.8799 27.3662 61.5752 27.3662C58.7236 27.3662 56.3799 26.3945 54.5439 24.4512C52.708 22.498 51.79 19.832 51.79 16.4531C51.79 12.8789 52.7129 10.1055 54.5586 8.13281C56.4043 6.15039 58.8311 5.15918 61.8389 5.15918C64.4658 5.15918 66.5996 5.93555 68.2402 7.48828C69.2168 8.40625 69.9492 9.72461 70.4375 11.4434L66.1455 12.4688C65.8916 11.3555 65.3594 10.4766 64.5488 9.83203C63.748 9.1875 62.7715 8.86523 61.6191 8.86523C60.0273 8.86523 58.7334 9.43652 57.7373 10.5791C56.751 11.7217 56.2578 13.5723 56.2578 16.1309C56.2578 18.8457 56.7461 20.7793 57.7227 21.9316C58.6992 23.084 59.9688 23.6602 61.5312 23.6602C62.6836 23.6602 63.6748 23.2939 64.5049 22.5615C65.335 21.8291 65.9307 20.6768 66.292 19.1045ZM73.3525 16.3945C73.3525 14.207 73.6797 12.3711 74.334 10.8867C74.8223 9.79297 75.4863 8.81152 76.3262 7.94238C77.1758 7.07324 78.1035 6.42871 79.1094 6.00879C80.4473 5.44238 81.9902 5.15918 83.7383 5.15918C86.9023 5.15918 89.4316 6.14062 91.3262 8.10352C93.2305 10.0664 94.1826 12.7959 94.1826 16.292C94.1826 19.7588 93.2402 22.4736 91.3555 24.4365C89.4707 26.3896 86.9512 27.3662 83.7969 27.3662C80.6035 27.3662 78.0645 26.3945 76.1797 24.4512C74.2949 22.498 73.3525 19.8125 73.3525 16.3945ZM77.8203 16.248C77.8203 18.6797 78.3818 20.5254 79.5049 21.7852C80.6279 23.0352 82.0537 23.6602 83.7822 23.6602C85.5107 23.6602 86.9268 23.04 88.0303 21.7998C89.1436 20.5498 89.7002 18.6797 89.7002 16.1895C89.7002 13.7285 89.1582 11.8926 88.0742 10.6816C87 9.4707 85.5693 8.86523 83.7822 8.86523C81.9951 8.86523 80.5547 9.48047 79.4609 10.7109C78.3672 11.9316 77.8203 13.7773 77.8203 16.248ZM97.5664 5.52539H105.491C107.278 5.52539 108.641 5.66211 109.578 5.93555C110.838 6.30664 111.917 6.96582 112.815 7.91309C113.714 8.86035 114.397 10.0225 114.866 11.3994C115.335 12.7666 115.569 14.4561 115.569 16.4678C115.569 18.2354 115.35 19.7588 114.91 21.0381C114.373 22.6006 113.606 23.8652 112.61 24.832C111.858 25.5645 110.843 26.1357 109.563 26.5459C108.606 26.8486 107.327 27 105.726 27H97.5664V5.52539ZM101.902 9.1582V23.3818H105.14C106.351 23.3818 107.225 23.3135 107.762 23.1768C108.465 23.001 109.046 22.7031 109.505 22.2832C109.974 21.8633 110.354 21.1748 110.647 20.2178C110.94 19.251 111.087 17.9375 111.087 16.2773C111.087 14.6172 110.94 13.3428 110.647 12.4541C110.354 11.5654 109.944 10.8721 109.417 10.374C108.89 9.87598 108.221 9.53906 107.41 9.36328C106.805 9.22656 105.618 9.1582 103.851 9.1582H101.902ZM119.261 27V5.52539H135.184V9.1582H123.597V13.9189H134.378V17.5371H123.597V23.3818H135.594V27H119.261Z"/>
</mask>
<path d="M4.2998 27V5.70117H8.63574V23.3818H19.417V27H4.2998ZM22.3906 27V5.52539H26.7266V27H22.3906ZM30.916 27V5.52539H35.1348L43.9238 19.8662V5.52539H47.9521V27H43.6016L34.9443 12.9961V27H30.916ZM66.292 19.1045L70.4961 20.4375C69.8516 22.7812 68.7773 24.5244 67.2734 25.667C65.7793 26.7998 63.8799 27.3662 61.5752 27.3662C58.7236 27.3662 56.3799 26.3945 54.5439 24.4512C52.708 22.498 51.79 19.832 51.79 16.4531C51.79 12.8789 52.7129 10.1055 54.5586 8.13281C56.4043 6.15039 58.8311 5.15918 61.8389 5.15918C64.4658 5.15918 66.5996 5.93555 68.2402 7.48828C69.2168 8.40625 69.9492 9.72461 70.4375 11.4434L66.1455 12.4688C65.8916 11.3555 65.3594 10.4766 64.5488 9.83203C63.748 9.1875 62.7715 8.86523 61.6191 8.86523C60.0273 8.86523 58.7334 9.43652 57.7373 10.5791C56.751 11.7217 56.2578 13.5723 56.2578 16.1309C56.2578 18.8457 56.7461 20.7793 57.7227 21.9316C58.6992 23.084 59.9688 23.6602 61.5312 23.6602C62.6836 23.6602 63.6748 23.2939 64.5049 22.5615C65.335 21.8291 65.9307 20.6768 66.292 19.1045ZM73.3525 16.3945C73.3525 14.207 73.6797 12.3711 74.334 10.8867C74.8223 9.79297 75.4863 8.81152 76.3262 7.94238C77.1758 7.07324 78.1035 6.42871 79.1094 6.00879C80.4473 5.44238 81.9902 5.15918 83.7383 5.15918C86.9023 5.15918 89.4316 6.14062 91.3262 8.10352C93.2305 10.0664 94.1826 12.7959 94.1826 16.292C94.1826 19.7588 93.2402 22.4736 91.3555 24.4365C89.4707 26.3896 86.9512 27.3662 83.7969 27.3662C80.6035 27.3662 78.0645 26.3945 76.1797 24.4512C74.2949 22.498 73.3525 19.8125 73.3525 16.3945ZM77.8203 16.248C77.8203 18.6797 78.3818 20.5254 79.5049 21.7852C80.6279 23.0352 82.0537 23.6602 83.7822 23.6602C85.5107 23.6602 86.9268 23.04 88.0303 21.7998C89.1436 20.5498 89.7002 18.6797 89.7002 16.1895C89.7002 13.7285 89.1582 11.8926 88.0742 10.6816C87 9.4707 85.5693 8.86523 83.7822 8.86523C81.9951 8.86523 80.5547 9.48047 79.4609 10.7109C78.3672 11.9316 77.8203 13.7773 77.8203 16.248ZM97.5664 5.52539H105.491C107.278 5.52539 108.641 5.66211 109.578 5.93555C110.838 6.30664 111.917 6.96582 112.815 7.91309C113.714 8.86035 114.397 10.0225 114.866 11.3994C115.335 12.7666 115.569 14.4561 115.569 16.4678C115.569 18.2354 115.35 19.7588 114.91 21.0381C114.373 22.6006 113.606 23.8652 112.61 24.832C111.858 25.5645 110.843 26.1357 109.563 26.5459C108.606 26.8486 107.327 27 105.726 27H97.5664V5.52539ZM101.902 9.1582V23.3818H105.14C106.351 23.3818 107.225 23.3135 107.762 23.1768C108.465 23.001 109.046 22.7031 109.505 22.2832C109.974 21.8633 110.354 21.1748 110.647 20.2178C110.94 19.251 111.087 17.9375 111.087 16.2773C111.087 14.6172 110.94 13.3428 110.647 12.4541C110.354 11.5654 109.944 10.8721 109.417 10.374C108.89 9.87598 108.221 9.53906 107.41 9.36328C106.805 9.22656 105.618 9.1582 103.851 9.1582H101.902ZM119.261 27V5.52539H135.184V9.1582H123.597V13.9189H134.378V17.5371H123.597V23.3818H135.594V27H119.261Z" fill="#011765"/>
<path d="M4.2998 27H3.2998V28H4.2998V27ZM4.2998 5.70117V4.70117H3.2998V5.70117H4.2998ZM8.63574 5.70117H9.63574V4.70117H8.63574V5.70117ZM8.63574 23.3818H7.63574V24.3818H8.63574V23.3818ZM19.417 23.3818H20.417V22.3818H19.417V23.3818ZM19.417 27V28H20.417V27H19.417ZM5.2998 27V5.70117H3.2998V27H5.2998ZM4.2998 6.70117H8.63574V4.70117H4.2998V6.70117ZM7.63574 5.70117V23.3818H9.63574V5.70117H7.63574ZM8.63574 24.3818H19.417V22.3818H8.63574V24.3818ZM18.417 23.3818V27H20.417V23.3818H18.417ZM19.417 26H4.2998V28H19.417V26ZM22.3906 27H21.3906V28H22.3906V27ZM22.3906 5.52539V4.52539H21.3906V5.52539H22.3906ZM26.7266 5.52539H27.7266V4.52539H26.7266V5.52539ZM26.7266 27V28H27.7266V27H26.7266ZM23.3906 27V5.52539H21.3906V27H23.3906ZM22.3906 6.52539H26.7266V4.52539H22.3906V6.52539ZM25.7266 5.52539V27H27.7266V5.52539H25.7266ZM26.7266 26H22.3906V28H26.7266V26ZM30.916 27H29.916V28H30.916V27ZM30.916 5.52539V4.52539H29.916V5.52539H30.916ZM35.1348 5.52539L35.9874 5.00285L35.6948 4.52539H35.1348V5.52539ZM43.9238 19.8662L43.0712 20.3888L44.9238 23.4116V19.8662H43.9238ZM43.9238 5.52539V4.52539H42.9238V5.52539H43.9238ZM47.9521 5.52539H48.9521V4.52539H47.9521V5.52539ZM47.9521 27V28H48.9521V27H47.9521ZM43.6016 27L42.751 27.5258L43.0441 28H43.6016V27ZM34.9443 12.9961L35.7949 12.4703L33.9443 9.47676V12.9961H34.9443ZM34.9443 27V28H35.9443V27H34.9443ZM31.916 27V5.52539H29.916V27H31.916ZM30.916 6.52539H35.1348V4.52539H30.916V6.52539ZM34.2822 6.04793L43.0712 20.3888L44.7764 19.3437L35.9874 5.00285L34.2822 6.04793ZM44.9238 19.8662V5.52539H42.9238V19.8662H44.9238ZM43.9238 6.52539H47.9521V4.52539H43.9238V6.52539ZM46.9521 5.52539V27H48.9521V5.52539H46.9521ZM47.9521 26H43.6016V28H47.9521V26ZM44.4521 26.4742L35.7949 12.4703L34.0938 13.5219L42.751 27.5258L44.4521 26.4742ZM33.9443 12.9961V27H35.9443V12.9961H33.9443ZM34.9443 26H30.916V28H34.9443V26ZM66.292 19.1045L66.5942 18.1513L65.5603 17.8234L65.3174 18.8805L66.292 19.1045ZM70.4961 20.4375L71.4603 20.7027L71.7154 19.775L70.7983 19.4843L70.4961 20.4375ZM67.2734 25.667L67.8776 26.4639L67.8784 26.4633L67.2734 25.667ZM54.5439 24.4512L53.8153 25.1361L53.817 25.1379L54.5439 24.4512ZM54.5586 8.13281L55.2888 8.81603L55.2905 8.81423L54.5586 8.13281ZM68.2402 7.48828L67.5528 8.21458L67.5553 8.21691L68.2402 7.48828ZM70.4375 11.4434L70.6699 12.416L71.6845 12.1736L71.3994 11.1701L70.4375 11.4434ZM66.1455 12.4688L65.1705 12.6911L65.3952 13.6761L66.3779 13.4414L66.1455 12.4688ZM64.5488 9.83203L63.9218 10.6111L63.9264 10.6147L64.5488 9.83203ZM57.7373 10.5791L56.9835 9.92196L56.9803 9.92565L57.7373 10.5791ZM65.9897 20.0577L70.1938 21.3907L70.7983 19.4843L66.5942 18.1513L65.9897 20.0577ZM69.5319 20.1723C68.9287 22.3656 67.953 23.8948 66.6685 24.8707L67.8784 26.4633C69.6017 25.154 70.7744 23.1969 71.4603 20.7027L69.5319 20.1723ZM66.6693 24.8701C65.3857 25.8433 63.7128 26.3662 61.5752 26.3662V28.3662C64.0469 28.3662 66.1729 27.7563 67.8776 26.4639L66.6693 24.8701ZM61.5752 26.3662C58.9782 26.3662 56.9043 25.4934 55.2709 23.7644L53.817 25.1379C55.8555 27.2956 58.4691 28.3662 61.5752 28.3662V26.3662ZM55.2726 23.7663C53.6532 22.0435 52.79 19.6467 52.79 16.4531H50.79C50.79 20.0174 51.7628 22.9526 53.8153 25.1361L55.2726 23.7663ZM52.79 16.4531C52.79 13.0486 53.6664 10.55 55.2888 8.81603L53.8284 7.44959C51.7594 9.66093 50.79 12.7093 50.79 16.4531H52.79ZM55.2905 8.81423C56.925 7.0586 59.0747 6.15918 61.8389 6.15918V4.15918C58.5874 4.15918 55.8835 5.24218 53.8267 7.45139L55.2905 8.81423ZM61.8389 6.15918C64.2548 6.15918 66.128 6.86606 67.5528 8.21457L68.9276 6.76199C67.0712 5.00503 64.6769 4.15918 61.8389 4.15918V6.15918ZM67.5553 8.21691C68.3631 8.97624 69.0208 10.1157 69.4756 11.7166L71.3994 11.1701C70.8777 9.33352 70.0705 7.83626 68.9251 6.75965L67.5553 8.21691ZM70.2051 10.4707L65.9131 11.4961L66.3779 13.4414L70.6699 12.416L70.2051 10.4707ZM67.1205 12.2464C66.8216 10.9359 66.178 9.84988 65.1712 9.04933L63.9264 10.6147C64.5408 11.1032 64.9616 11.7751 65.1705 12.6911L67.1205 12.2464ZM65.1758 9.05302C64.1759 8.24816 62.9703 7.86523 61.6191 7.86523V9.86523C62.5726 9.86523 63.3202 10.1268 63.9218 10.611L65.1758 9.05302ZM61.6191 7.86523C59.7548 7.86523 58.1801 8.54942 56.9835 9.92197L58.4911 11.2362C59.2867 10.3236 60.2999 9.86523 61.6191 9.86523V7.86523ZM56.9803 9.92565C55.7599 11.3394 55.2578 13.4857 55.2578 16.1309H57.2578C57.2578 13.6589 57.7421 12.1039 58.4943 11.2326L56.9803 9.92565ZM55.2578 16.1309C55.2578 18.9139 55.7482 21.1485 56.9598 22.5782L58.4856 21.2851C57.744 20.41 57.2578 18.7776 57.2578 16.1309H55.2578ZM56.9598 22.5782C58.1337 23.9634 59.6865 24.6602 61.5312 24.6602V22.6602C60.251 22.6602 59.2647 22.2045 58.4856 21.2851L56.9598 22.5782ZM61.5312 24.6602C62.9163 24.6602 64.1457 24.2121 65.1665 23.3114L63.8433 21.8117C63.2039 22.3758 62.4509 22.6602 61.5312 22.6602V24.6602ZM65.1665 23.3114C66.2102 22.3905 66.8789 21.0154 67.2666 19.3285L65.3174 18.8805C64.9824 20.3382 64.4598 21.2677 63.8433 21.8117L65.1665 23.3114ZM74.334 10.8867L73.4208 10.4791L73.4189 10.4834L74.334 10.8867ZM76.3262 7.94238L75.6111 7.24334L75.607 7.2475L76.3262 7.94238ZM79.1094 6.00879L79.4946 6.93161L79.4992 6.92966L79.1094 6.00879ZM91.3262 8.10352L90.6066 8.79799L90.6084 8.79983L91.3262 8.10352ZM91.3555 24.4365L92.0751 25.1309L92.0768 25.1291L91.3555 24.4365ZM76.1797 24.4512L75.4601 25.1456L75.4618 25.1474L76.1797 24.4512ZM79.5049 21.7852L78.7584 22.4506L78.761 22.4535L79.5049 21.7852ZM88.0303 21.7998L87.2835 21.1347L87.2832 21.1351L88.0303 21.7998ZM88.0742 10.6816L87.3261 11.3453L87.3291 11.3486L88.0742 10.6816ZM79.4609 10.7109L80.2057 11.3783L80.2083 11.3753L79.4609 10.7109ZM74.3525 16.3945C74.3525 14.3002 74.6666 12.6113 75.249 11.2901L73.4189 10.4834C72.6927 12.1309 72.3525 14.1139 72.3525 16.3945H74.3525ZM75.2471 11.2944C75.6875 10.3079 76.2856 9.42346 77.0453 8.63727L75.607 7.2475C74.687 8.19959 73.957 9.27803 73.4208 10.4791L75.2471 11.2944ZM77.0413 8.64141C77.8079 7.85718 78.6261 7.29418 79.4946 6.9316L78.7241 5.08598C77.5809 5.56325 76.5437 6.2893 75.6111 7.24336L77.0413 8.64141ZM79.4992 6.92966C80.6914 6.42494 82.0975 6.15918 83.7383 6.15918V4.15918C81.8829 4.15918 80.2031 4.45982 78.7195 5.08791L79.4992 6.92966ZM83.7383 6.15918C86.6782 6.15918 88.931 7.06187 90.6066 8.79798L92.0457 7.40905C89.9323 5.21938 87.1265 4.15918 83.7383 4.15918V6.15918ZM90.6084 8.79983C92.2852 10.5282 93.1826 12.9804 93.1826 16.292H95.1826C95.1826 12.6114 94.1758 9.60464 92.0439 7.4072L90.6084 8.79983ZM93.1826 16.292C93.1826 19.5744 92.2948 22.0144 90.6342 23.7439L92.0768 25.1291C94.1857 22.9328 95.1826 19.9432 95.1826 16.292H93.1826ZM90.6359 23.7421C88.9704 25.468 86.7276 26.3662 83.7969 26.3662V28.3662C87.1747 28.3662 89.971 27.3113 92.0751 25.1309L90.6359 23.7421ZM83.7969 26.3662C80.8215 26.3662 78.5603 25.4694 76.8975 23.755L75.4618 25.1474C77.5686 27.3197 80.3855 28.3662 83.7969 28.3662V26.3662ZM76.8993 23.7568C75.238 22.0352 74.3525 19.6238 74.3525 16.3945H72.3525C72.3525 20.0012 73.3519 22.9609 75.4601 25.1456L76.8993 23.7568ZM76.8203 16.248C76.8203 18.8183 77.4128 20.9411 78.7584 22.4506L80.2513 21.1197C79.3509 20.1097 78.8203 18.5411 78.8203 16.248H76.8203ZM78.761 22.4535C80.0798 23.9214 81.7792 24.6602 83.7822 24.6602V22.6602C82.3282 22.6602 81.176 22.1489 80.2488 21.1168L78.761 22.4535ZM83.7822 24.6602C85.7828 24.6602 87.4754 23.9278 88.7774 22.4645L87.2832 21.1351C86.3781 22.1522 85.2386 22.6602 83.7822 22.6602V24.6602ZM88.777 22.4649C90.1171 20.9602 90.7002 18.8083 90.7002 16.1895H88.7002C88.7002 18.551 88.17 20.1394 87.2835 21.1347L88.777 22.4649ZM90.7002 16.1895C90.7002 13.605 90.1341 11.4834 88.8193 10.0147L87.3291 11.3486C88.1824 12.3018 88.7002 13.852 88.7002 16.1895H90.7002ZM88.8223 10.018C87.5373 8.56944 85.822 7.86523 83.7822 7.86523V9.86523C85.3166 9.86523 86.4627 10.372 87.3261 11.3453L88.8223 10.018ZM83.7822 7.86523C81.7369 7.86523 80.0146 8.58292 78.7135 10.0466L80.2083 11.3753C81.0948 10.378 82.2533 9.86523 83.7822 9.86523V7.86523ZM78.7162 10.0436C77.392 11.5215 76.8203 13.6524 76.8203 16.248H78.8203C78.8203 13.9023 79.3424 12.3418 80.2057 11.3783L78.7162 10.0436ZM97.5664 5.52539V4.52539H96.5664V5.52539H97.5664ZM109.578 5.93555L109.861 4.9763L109.858 4.97555L109.578 5.93555ZM114.866 11.3994L113.92 11.7217L113.92 11.7237L114.866 11.3994ZM114.91 21.0381L115.856 21.3632L115.856 21.363L114.91 21.0381ZM112.61 24.832L111.914 24.1144L111.913 24.1157L112.61 24.832ZM109.563 26.5459L109.865 27.4993L109.869 27.4982L109.563 26.5459ZM97.5664 27H96.5664V28H97.5664V27ZM101.902 9.1582V8.1582H100.902V9.1582H101.902ZM101.902 23.3818H100.902V24.3818H101.902V23.3818ZM107.762 23.1768L107.519 22.2066L107.515 22.2077L107.762 23.1768ZM109.505 22.2832L108.838 21.5383L108.83 21.5454L109.505 22.2832ZM110.647 20.2178L111.604 20.5105L111.604 20.5078L110.647 20.2178ZM110.647 12.4541L109.698 12.7672L110.647 12.4541ZM107.41 9.36328L107.19 10.3388L107.198 10.3406L107.41 9.36328ZM97.5664 6.52539H105.491V4.52539H97.5664V6.52539ZM105.491 6.52539C107.248 6.52539 108.498 6.66211 109.298 6.89555L109.858 4.97555C108.783 4.6621 107.308 4.52539 105.491 4.52539V6.52539ZM109.296 6.89479C110.387 7.21643 111.313 7.78257 112.09 8.60125L113.541 7.22493C112.521 6.14907 111.288 5.39686 109.861 4.9763L109.296 6.89479ZM112.09 8.60125C112.878 9.43253 113.492 10.4655 113.92 11.7217L115.813 11.0772C115.303 9.57939 114.549 8.28817 113.541 7.22493L112.09 8.60125ZM113.92 11.7237C114.342 12.9545 114.569 14.5265 114.569 16.4678H116.569C116.569 14.3856 116.328 12.5787 115.812 11.0751L113.92 11.7237ZM114.569 16.4678C114.569 18.1568 114.359 19.565 113.964 20.7132L115.856 21.363C116.34 19.9526 116.569 18.3139 116.569 16.4678H114.569ZM113.964 20.713C113.469 22.155 112.778 23.2761 111.914 24.1145L113.307 25.5496C114.435 24.4544 115.277 23.0462 115.856 21.3632L113.964 20.713ZM111.913 24.1157C111.298 24.7143 110.43 25.2179 109.258 25.5936L109.869 27.4982C111.255 27.0536 112.419 26.4146 113.308 25.5484L111.913 24.1157ZM109.262 25.5925C108.443 25.8516 107.278 26 105.726 26V28C107.376 28 108.77 27.8457 109.865 27.4993L109.262 25.5925ZM105.726 26H97.5664V28H105.726V26ZM98.5664 27V5.52539H96.5664V27H98.5664ZM100.902 9.1582V23.3818H102.902V9.1582H100.902ZM101.902 24.3818H105.14V22.3818H101.902V24.3818ZM105.14 24.3818C106.36 24.3818 107.341 24.3157 108.008 24.1459L107.515 22.2077C107.108 22.3113 106.342 22.3818 105.14 22.3818V24.3818ZM108.004 24.1469C108.842 23.9375 109.579 23.5703 110.18 23.021L108.83 21.5454C108.512 21.8359 108.088 22.0645 107.519 22.2066L108.004 24.1469ZM110.172 23.028C110.834 22.4347 111.286 21.5484 111.604 20.5105L109.691 19.9251C109.423 20.8013 109.113 21.2919 108.838 21.5384L110.172 23.028ZM111.604 20.5078C111.938 19.4061 112.087 17.9813 112.087 16.2773H110.087C110.087 17.8937 109.943 19.0958 109.69 19.9278L111.604 20.5078ZM112.087 16.2773C112.087 14.5797 111.94 13.1801 111.597 12.141L109.698 12.7672C109.941 13.5054 110.087 14.6547 110.087 16.2773H112.087ZM111.597 12.141C111.267 11.1391 110.782 10.2874 110.104 9.64701L108.73 11.101C109.107 11.4568 109.442 11.9917 109.698 12.7672L111.597 12.141ZM110.104 9.64701C109.426 9.00674 108.585 8.59475 107.622 8.386L107.198 10.3406C107.857 10.4834 108.354 10.7452 108.73 11.101L110.104 9.64701ZM107.63 8.38784C106.899 8.22279 105.603 8.1582 103.851 8.1582V10.1582C105.633 10.1582 106.71 10.2303 107.19 10.3387L107.63 8.38784ZM103.851 8.1582H101.902V10.1582H103.851V8.1582ZM119.261 27H118.261V28H119.261V27ZM119.261 5.52539V4.52539H118.261V5.52539H119.261ZM135.184 5.52539H136.184V4.52539H135.184V5.52539ZM135.184 9.1582V10.1582H136.184V9.1582H135.184ZM123.597 9.1582V8.1582H122.597V9.1582H123.597ZM123.597 13.9189H122.597V14.9189H123.597V13.9189ZM134.378 13.9189H135.378V12.9189H134.378V13.9189ZM134.378 17.5371V18.5371H135.378V17.5371H134.378ZM123.597 17.5371V16.5371H122.597V17.5371H123.597ZM123.597 23.3818H122.597V24.3818H123.597V23.3818ZM135.594 23.3818H136.594V22.3818H135.594V23.3818ZM135.594 27V28H136.594V27H135.594ZM120.261 27V5.52539H118.261V27H120.261ZM119.261 6.52539H135.184V4.52539H119.261V6.52539ZM134.184 5.52539V9.1582H136.184V5.52539H134.184ZM135.184 8.1582H123.597V10.1582H135.184V8.1582ZM122.597 9.1582V13.9189H124.597V9.1582H122.597ZM123.597 14.9189H134.378V12.9189H123.597V14.9189ZM133.378 13.9189V17.5371H135.378V13.9189H133.378ZM134.378 16.5371H123.597V18.5371H134.378V16.5371ZM122.597 17.5371V23.3818H124.597V17.5371H122.597ZM123.597 24.3818H135.594V22.3818H123.597V24.3818ZM134.594 23.3818V27H136.594V23.3818H134.594ZM135.594 26H119.261V28H135.594V26Z" fill="black" mask="url(#path-3-outside-2_7_62)"/>
</g>
<defs>
<filter id="filter0_d_7_62" x="151" y="8.38867" width="80.5065" height="26.916" filterUnits="userSpaceOnUse" color-interpolation-filters="sRGB">
<feFlood flood-opacity="0" result="BackgroundImageFix"/>
<feColorMatrix in="SourceAlpha" type="matrix" values="0 0 0 0 0 0 0 0 0 0 0 0 0 0 0 0 0 0 127 0" result="hardAlpha"/>
<feOffset dy="4"/>
<feGaussianBlur stdDeviation="2"/>
<feComposite in2="hardAlpha" operator="out"/>
<feColorMatrix type="matrix" values="0 0 0 0 0 0 0 0 0 0 0 0 0 0 0 0 0 0 0.25 0"/>
<feBlend mode="normal" in2="BackgroundImageFix" result="effect1_dropShadow_7_62"/>
<feBlend mode="normal" in="SourceGraphic" in2="effect1_dropShadow_7_62" result="shape"/>
</filter>
<filter id="filter1_d_7_62" x="0.299805" y="5.15918" width="139.294" height="30.207" filterUnits="userSpaceOnUse" color-interpolation-filters="sRGB">
<feFlood flood-opacity="0" result="BackgroundImageFix"/>
<feColorMatrix in="SourceAlpha" type="matrix" values="0 0 0 0 0 0 0 0 0 0 0 0 0 0 0 0 0 0 127 0" result="hardAlpha"/>
<feOffset dy="4"/>
<feGaussianBlur stdDeviation="2"/>
<feComposite in2="hardAlpha" operator="out"/>
<feColorMatrix type="matrix" values="0 0 0 0 0 0 0 0 0 0 0 0 0 0 0 0 0 0 0.25 0"/>
<feBlend mode="normal" in2="BackgroundImageFix" result="effect1_dropShadow_7_62"/>
<feBlend mode="normal" in="SourceGraphic" in2="effect1_dropShadow_7_62" result="shape"/>
</filter>
</defs>
</svg>
