<svg width="335" height="94" viewBox="0 0 335 94" fill="none" xmlns="http://www.w3.org/2000/svg">
<circle cx="57.5" cy="22.5" r="22.5" fill="#292929"/>
<circle cx="20.5" cy="24.5" r="10.5" fill="#011765"/>
<circle cx="72.5" cy="62.5" r="13.5" fill="#011765"/>
<circle cx="27.5" cy="66.5" r="27.5" fill="#292929"/>
<g filter="url(#filter0_d_2520_39)">
<mask id="path-5-outside-1_2520_39" maskUnits="userSpaceOnUse" x="252" y="46" width="76" height="22" fill="black">
<rect fill="white" x="252" y="46" width="76" height="22"/>
<path d="M272.675 66H268.587L266.962 61.7725H259.522L257.986 66H254L261.249 47.3887H265.223L272.675 66ZM265.756 58.6367L263.191 51.7305L260.678 58.6367H265.756ZM279.737 66L274.304 52.5176H278.049L280.588 59.3984L281.324 61.6963C281.519 61.1123 281.642 60.7272 281.693 60.541C281.811 60.1602 281.938 59.7793 282.073 59.3984L284.638 52.5176H288.307L282.949 66H279.737ZM292.843 50.6895V47.3887H296.41V50.6895H292.843ZM292.843 66V52.5176H296.41V66H292.843ZM308.602 52.5176V55.3613H306.165V60.7949C306.165 61.8952 306.186 62.5384 306.228 62.7246C306.279 62.9023 306.385 63.0505 306.545 63.1689C306.715 63.2874 306.918 63.3467 307.155 63.3467C307.485 63.3467 307.963 63.2324 308.589 63.0039L308.894 65.7715C308.065 66.127 307.125 66.3047 306.076 66.3047C305.432 66.3047 304.853 66.1989 304.336 65.9873C303.82 65.7673 303.439 65.488 303.194 65.1494C302.957 64.8024 302.792 64.3369 302.699 63.7529C302.623 63.3382 302.584 62.5003 302.584 61.2393V55.3613H300.947V52.5176H302.584V49.8389L306.165 47.7568V52.5176H308.602ZM312.592 59.0684C312.592 57.8835 312.884 56.7367 313.468 55.6279C314.052 54.5192 314.878 53.6729 315.944 53.0889C317.019 52.5049 318.216 52.2129 319.537 52.2129C321.576 52.2129 323.248 52.8773 324.551 54.2061C325.855 55.5264 326.506 57.1979 326.506 59.2207C326.506 61.2604 325.846 62.9531 324.526 64.2988C323.214 65.6361 321.56 66.3047 319.562 66.3047C318.326 66.3047 317.146 66.0254 316.02 65.4668C314.903 64.9082 314.052 64.0915 313.468 63.0166C312.884 61.9333 312.592 60.6172 312.592 59.0684ZM316.249 59.2588C316.249 60.596 316.566 61.6201 317.201 62.3311C317.836 63.042 318.618 63.3975 319.549 63.3975C320.48 63.3975 321.259 63.042 321.885 62.3311C322.52 61.6201 322.838 60.5876 322.838 59.2334C322.838 57.9131 322.52 56.8975 321.885 56.1865C321.259 55.4756 320.48 55.1201 319.549 55.1201C318.618 55.1201 317.836 55.4756 317.201 56.1865C316.566 56.8975 316.249 57.9215 316.249 59.2588Z"/>
</mask>
<path d="M272.675 66H268.587L266.962 61.7725H259.522L257.986 66H254L261.249 47.3887H265.223L272.675 66ZM265.756 58.6367L263.191 51.7305L260.678 58.6367H265.756ZM279.737 66L274.304 52.5176H278.049L280.588 59.3984L281.324 61.6963C281.519 61.1123 281.642 60.7272 281.693 60.541C281.811 60.1602 281.938 59.7793 282.073 59.3984L284.638 52.5176H288.307L282.949 66H279.737ZM292.843 50.6895V47.3887H296.41V50.6895H292.843ZM292.843 66V52.5176H296.41V66H292.843ZM308.602 52.5176V55.3613H306.165V60.7949C306.165 61.8952 306.186 62.5384 306.228 62.7246C306.279 62.9023 306.385 63.0505 306.545 63.1689C306.715 63.2874 306.918 63.3467 307.155 63.3467C307.485 63.3467 307.963 63.2324 308.589 63.0039L308.894 65.7715C308.065 66.127 307.125 66.3047 306.076 66.3047C305.432 66.3047 304.853 66.1989 304.336 65.9873C303.82 65.7673 303.439 65.488 303.194 65.1494C302.957 64.8024 302.792 64.3369 302.699 63.7529C302.623 63.3382 302.584 62.5003 302.584 61.2393V55.3613H300.947V52.5176H302.584V49.8389L306.165 47.7568V52.5176H308.602ZM312.592 59.0684C312.592 57.8835 312.884 56.7367 313.468 55.6279C314.052 54.5192 314.878 53.6729 315.944 53.0889C317.019 52.5049 318.216 52.2129 319.537 52.2129C321.576 52.2129 323.248 52.8773 324.551 54.2061C325.855 55.5264 326.506 57.1979 326.506 59.2207C326.506 61.2604 325.846 62.9531 324.526 64.2988C323.214 65.6361 321.56 66.3047 319.562 66.3047C318.326 66.3047 317.146 66.0254 316.02 65.4668C314.903 64.9082 314.052 64.0915 313.468 63.0166C312.884 61.9333 312.592 60.6172 312.592 59.0684ZM316.249 59.2588C316.249 60.596 316.566 61.6201 317.201 62.3311C317.836 63.042 318.618 63.3975 319.549 63.3975C320.48 63.3975 321.259 63.042 321.885 62.3311C322.52 61.6201 322.838 60.5876 322.838 59.2334C322.838 57.9131 322.52 56.8975 321.885 56.1865C321.259 55.4756 320.48 55.1201 319.549 55.1201C318.618 55.1201 317.836 55.4756 317.201 56.1865C316.566 56.8975 316.249 57.9215 316.249 59.2588Z" fill="#011765"/>
<path d="M272.675 66V67H274.152L273.603 65.6283L272.675 66ZM268.587 66L267.653 66.3588L267.9 67H268.587V66ZM266.962 61.7725L267.895 61.4137L267.649 60.7725H266.962V61.7725ZM259.522 61.7725V60.7725H258.822L258.583 61.4309L259.522 61.7725ZM257.986 66V67H258.687L258.926 66.3415L257.986 66ZM254 66L253.068 65.6371L252.537 67H254V66ZM261.249 47.3887V46.3887H260.565L260.317 47.0257L261.249 47.3887ZM265.223 47.3887L266.151 47.017L265.899 46.3887H265.223V47.3887ZM265.756 58.6367V59.6367H267.194L266.693 58.2886L265.756 58.6367ZM263.191 51.7305L264.129 51.3824L263.182 48.8325L262.252 51.3884L263.191 51.7305ZM260.678 58.6367L259.738 58.2947L259.25 59.6367H260.678V58.6367ZM272.675 65H268.587V67H272.675V65ZM269.52 65.6412L267.895 61.4137L266.028 62.1313L267.653 66.3588L269.52 65.6412ZM266.962 60.7725H259.522V62.7725H266.962V60.7725ZM258.583 61.4309L257.046 65.6585L258.926 66.3415L260.462 62.114L258.583 61.4309ZM257.986 65H254V67H257.986V65ZM254.932 66.3629L262.181 47.7516L260.317 47.0257L253.068 65.6371L254.932 66.3629ZM261.249 48.3887H265.223V46.3887H261.249V48.3887ZM264.294 47.7604L271.746 66.3717L273.603 65.6283L266.151 47.017L264.294 47.7604ZM266.693 58.2886L264.129 51.3824L262.254 52.0786L264.818 58.9848L266.693 58.2886ZM262.252 51.3884L259.738 58.2947L261.617 58.9787L264.131 52.0725L262.252 51.3884ZM260.678 59.6367H265.756V57.6367H260.678V59.6367ZM279.737 66L278.81 66.3738L279.062 67H279.737V66ZM274.304 52.5176V51.5176H272.823L273.376 52.8914L274.304 52.5176ZM278.049 52.5176L278.987 52.1714L278.746 51.5176H278.049V52.5176ZM280.588 59.3984L281.54 59.0933L281.534 59.0726L281.526 59.0523L280.588 59.3984ZM281.324 61.6963L280.372 62.0014L281.306 64.9148L282.273 62.0125L281.324 61.6963ZM281.693 60.541L280.738 60.2439L280.732 60.2608L280.728 60.2779L281.693 60.541ZM282.073 59.3984L281.136 59.0492L281.134 59.0563L281.131 59.0634L282.073 59.3984ZM284.638 52.5176V51.5176H283.943L283.701 52.1684L284.638 52.5176ZM288.307 52.5176L289.236 52.8869L289.78 51.5176H288.307V52.5176ZM282.949 66V67H283.628L283.879 66.3693L282.949 66ZM280.665 65.6262L275.231 52.1438L273.376 52.8914L278.81 66.3738L280.665 65.6262ZM274.304 53.5176H278.049V51.5176H274.304V53.5176ZM277.111 52.8638L279.65 59.7446L281.526 59.0523L278.987 52.1714L277.111 52.8638ZM279.636 59.7036L280.372 62.0014L282.277 61.3911L281.54 59.0933L279.636 59.7036ZM282.273 62.0125C282.466 61.4341 282.598 61.022 282.657 60.8041L280.728 60.2779C280.686 60.4325 280.572 60.7905 280.376 61.3801L282.273 62.0125ZM282.647 60.8381C282.762 60.4701 282.885 60.1019 283.016 59.7334L281.131 59.0634C280.991 59.4567 280.86 59.8502 280.738 60.2439L282.647 60.8381ZM283.01 59.7477L285.575 52.8668L283.701 52.1684L281.136 59.0492L283.01 59.7477ZM284.638 53.5176H288.307V51.5176H284.638V53.5176ZM287.377 52.1483L282.02 65.6307L283.879 66.3693L289.236 52.8869L287.377 52.1483ZM282.949 65H279.737V67H282.949V65ZM292.843 50.6895H291.843V51.6895H292.843V50.6895ZM292.843 47.3887V46.3887H291.843V47.3887H292.843ZM296.41 47.3887H297.41V46.3887H296.41V47.3887ZM296.41 50.6895V51.6895H297.41V50.6895H296.41ZM292.843 66H291.843V67H292.843V66ZM292.843 52.5176V51.5176H291.843V52.5176H292.843ZM296.41 52.5176H297.41V51.5176H296.41V52.5176ZM296.41 66V67H297.41V66H296.41ZM293.843 50.6895V47.3887H291.843V50.6895H293.843ZM292.843 48.3887H296.41V46.3887H292.843V48.3887ZM295.41 47.3887V50.6895H297.41V47.3887H295.41ZM296.41 49.6895H292.843V51.6895H296.41V49.6895ZM293.843 66V52.5176H291.843V66H293.843ZM292.843 53.5176H296.41V51.5176H292.843V53.5176ZM295.41 52.5176V66H297.41V52.5176H295.41ZM296.41 65H292.843V67H296.41V65ZM308.602 52.5176H309.602V51.5176H308.602V52.5176ZM308.602 55.3613V56.3613H309.602V55.3613H308.602ZM306.165 55.3613V54.3613H305.165V55.3613H306.165ZM306.228 62.7246L305.253 62.9462L305.259 62.973L305.266 62.9993L306.228 62.7246ZM306.545 63.1689L305.952 63.974L305.962 63.9812L305.972 63.9882L306.545 63.1689ZM308.589 63.0039L309.583 62.8945L309.444 61.6276L308.247 62.0645L308.589 63.0039ZM308.894 65.7715L309.288 66.6906L309.969 66.3987L309.888 65.6621L308.894 65.7715ZM304.336 65.9873L303.944 66.9073L303.957 66.9126L304.336 65.9873ZM303.194 65.1494L302.368 65.7134L302.376 65.725L302.384 65.7364L303.194 65.1494ZM302.699 63.7529L303.686 63.5955L303.684 63.5839L303.682 63.5723L302.699 63.7529ZM302.584 55.3613H303.584V54.3613H302.584V55.3613ZM300.947 55.3613H299.947V56.3613H300.947V55.3613ZM300.947 52.5176V51.5176H299.947V52.5176H300.947ZM302.584 52.5176V53.5176H303.584V52.5176H302.584ZM302.584 49.8389L302.082 48.9744L301.584 49.2636V49.8389H302.584ZM306.165 47.7568H307.165V46.0185L305.662 46.8924L306.165 47.7568ZM306.165 52.5176H305.165V53.5176H306.165V52.5176ZM307.602 52.5176V55.3613H309.602V52.5176H307.602ZM308.602 54.3613H306.165V56.3613H308.602V54.3613ZM305.165 55.3613V60.7949H307.165V55.3613H305.165ZM305.165 60.7949C305.165 61.3495 305.17 61.7979 305.181 62.1354C305.191 62.4325 305.206 62.7418 305.253 62.9462L307.203 62.503C307.207 62.5212 307.191 62.4158 307.18 62.0697C307.17 61.764 307.165 61.3406 307.165 60.7949H305.165ZM305.266 62.9993C305.383 63.4073 305.629 63.7356 305.952 63.974L307.139 62.3639C307.135 62.3611 307.145 62.3681 307.159 62.3878C307.174 62.4081 307.184 62.4306 307.19 62.4499L305.266 62.9993ZM305.972 63.9882C306.333 64.241 306.744 64.3467 307.155 64.3467V62.3467C307.12 62.3467 307.105 62.3424 307.105 62.3422C307.104 62.3421 307.106 62.3427 307.109 62.3442C307.113 62.3458 307.116 62.3477 307.119 62.3497L305.972 63.9882ZM307.155 64.3467C307.669 64.3467 308.285 64.1796 308.932 63.9433L308.247 62.0645C307.642 62.2852 307.301 62.3467 307.155 62.3467V64.3467ZM307.595 63.1133L307.9 65.8809L309.888 65.6621L309.583 62.8945L307.595 63.1133ZM308.5 64.8523C307.814 65.1465 307.012 65.3047 306.076 65.3047V67.3047C307.239 67.3047 308.315 67.1074 309.288 66.6906L308.5 64.8523ZM306.076 65.3047C305.543 65.3047 305.095 65.2173 304.716 65.062L303.957 66.9126C304.611 67.1805 305.322 67.3047 306.076 67.3047V65.3047ZM304.729 65.0674C304.324 64.8949 304.112 64.7122 304.003 64.5624L302.384 65.7364C302.767 66.2637 303.316 66.6396 303.944 66.9072L304.729 65.0674ZM304.02 64.5855C303.893 64.3995 303.765 64.0892 303.686 63.5955L301.711 63.9104C301.819 64.5847 302.021 65.2053 302.368 65.7134L304.02 64.5855ZM303.682 63.5723C303.625 63.262 303.584 62.5156 303.584 61.2393H301.584C301.584 62.485 301.62 63.4144 301.715 63.9336L303.682 63.5723ZM303.584 61.2393V55.3613H301.584V61.2393H303.584ZM302.584 54.3613H300.947V56.3613H302.584V54.3613ZM301.947 55.3613V52.5176H299.947V55.3613H301.947ZM300.947 53.5176H302.584V51.5176H300.947V53.5176ZM303.584 52.5176V49.8389H301.584V52.5176H303.584ZM303.087 50.7033L306.667 48.6213L305.662 46.8924L302.082 48.9744L303.087 50.7033ZM305.165 47.7568V52.5176H307.165V47.7568H305.165ZM306.165 53.5176H308.602V51.5176H306.165V53.5176ZM315.944 53.0889L315.467 52.2102L315.464 52.2118L315.944 53.0889ZM324.551 54.2061L323.838 54.9063L323.84 54.9086L324.551 54.2061ZM324.526 64.2988L323.812 63.5985L323.812 63.5985L324.526 64.2988ZM316.02 65.4668L315.573 66.3612L315.576 66.3626L316.02 65.4668ZM313.468 63.0166L312.588 63.4911L312.59 63.494L313.468 63.0166ZM321.885 62.3311L321.139 61.665L321.135 61.67L321.885 62.3311ZM321.885 56.1865L321.135 56.8476L321.139 56.8525L321.885 56.1865ZM313.592 59.0684C313.592 58.0552 313.84 57.0675 314.353 56.094L312.584 55.1619C311.928 56.4058 311.592 57.7117 311.592 59.0684H313.592ZM314.353 56.094C314.849 55.1534 315.536 54.4526 316.424 53.966L315.464 52.2118C314.219 52.8931 313.256 53.8851 312.584 55.1619L314.353 56.094ZM316.421 53.9676C317.338 53.4694 318.37 53.2129 319.537 53.2129V51.2129C318.063 51.2129 316.699 51.5403 315.467 52.2102L316.421 53.9676ZM319.537 53.2129C321.336 53.2129 322.741 53.7886 323.838 54.9063L325.265 53.5058C323.755 51.9659 321.817 51.2129 319.537 51.2129V53.2129ZM323.84 54.9086C324.941 56.024 325.506 57.4348 325.506 59.2207H327.506C327.506 56.961 326.769 55.0288 325.263 53.5035L323.84 54.9086ZM325.506 59.2207C325.506 61.0221 324.933 62.456 323.812 63.5985L325.24 64.9992C326.759 63.4503 327.506 61.4987 327.506 59.2207H325.506ZM323.812 63.5985C322.702 64.7304 321.311 65.3047 319.562 65.3047V67.3047C321.808 67.3047 323.727 66.5417 325.24 64.9991L323.812 63.5985ZM319.562 65.3047C318.483 65.3047 317.455 65.0623 316.465 64.571L315.576 66.3626C316.837 66.9885 318.17 67.3047 319.562 67.3047V65.3047ZM316.467 64.5724C315.529 64.1033 314.831 63.4302 314.347 62.5392L312.59 63.494C313.274 64.7528 314.277 65.7131 315.573 66.3612L316.467 64.5724ZM314.349 62.5421C313.861 61.6375 313.592 60.4935 313.592 59.0684H311.592C311.592 60.7409 311.908 62.229 312.588 63.4911L314.349 62.5421ZM315.249 59.2588C315.249 60.7429 315.601 62.0406 316.455 62.9971L317.947 61.665C317.531 61.1996 317.249 60.4491 317.249 59.2588H315.249ZM316.455 62.9971C317.274 63.9147 318.326 64.3975 319.549 64.3975V62.3975C318.911 62.3975 318.397 62.1692 317.947 61.665L316.455 62.9971ZM319.549 64.3975C320.773 64.3975 321.823 63.9142 322.636 62.9921L321.135 61.67C320.695 62.1698 320.187 62.3975 319.549 62.3975V64.3975ZM322.631 62.9971C323.487 62.0386 323.838 60.7306 323.838 59.2334H321.838C321.838 60.4445 321.553 61.2017 321.139 61.665L322.631 62.9971ZM323.838 59.2334C323.838 57.7623 323.483 56.4749 322.631 55.5205L321.139 56.8525C321.557 57.32 321.838 58.0639 321.838 59.2334H323.838ZM322.636 55.5255C321.823 54.6034 320.773 54.1201 319.549 54.1201V56.1201C320.187 56.1201 320.695 56.3477 321.135 56.8476L322.636 55.5255ZM319.549 54.1201C318.326 54.1201 317.274 54.6028 316.455 55.5205L317.947 56.8525C318.397 56.3483 318.911 56.1201 319.549 56.1201V54.1201ZM316.455 55.5205C315.601 56.477 315.249 57.7746 315.249 59.2588H317.249C317.249 58.0685 317.531 57.3179 317.947 56.8525L316.455 55.5205Z" fill="black" mask="url(#path-5-outside-1_2520_39)"/>
</g>
<g filter="url(#filter1_d_2520_39)">
<mask id="path-7-outside-2_2520_39" maskUnits="userSpaceOnUse" x="102" y="43" width="134" height="25" fill="black">
<rect fill="white" x="102" y="43" width="134" height="25"/>
<path d="M103.3 66V44.7012H107.636V62.3818H118.417V66H103.3ZM121.391 66V44.5254H125.727V66H121.391ZM129.916 66V44.5254H134.135L142.924 58.8662V44.5254H146.952V66H142.602L133.944 51.9961V66H129.916ZM165.292 58.1045L169.496 59.4375C168.852 61.7812 167.777 63.5244 166.273 64.667C164.779 65.7998 162.88 66.3662 160.575 66.3662C157.724 66.3662 155.38 65.3945 153.544 63.4512C151.708 61.498 150.79 58.832 150.79 55.4531C150.79 51.8789 151.713 49.1055 153.559 47.1328C155.404 45.1504 157.831 44.1592 160.839 44.1592C163.466 44.1592 165.6 44.9355 167.24 46.4883C168.217 47.4062 168.949 48.7246 169.438 50.4434L165.146 51.4688C164.892 50.3555 164.359 49.4766 163.549 48.832C162.748 48.1875 161.771 47.8652 160.619 47.8652C159.027 47.8652 157.733 48.4365 156.737 49.5791C155.751 50.7217 155.258 52.5723 155.258 55.1309C155.258 57.8457 155.746 59.7793 156.723 60.9316C157.699 62.084 158.969 62.6602 160.531 62.6602C161.684 62.6602 162.675 62.2939 163.505 61.5615C164.335 60.8291 164.931 59.6768 165.292 58.1045ZM172.353 55.3945C172.353 53.207 172.68 51.3711 173.334 49.8867C173.822 48.793 174.486 47.8115 175.326 46.9424C176.176 46.0732 177.104 45.4287 178.109 45.0088C179.447 44.4424 180.99 44.1592 182.738 44.1592C185.902 44.1592 188.432 45.1406 190.326 47.1035C192.23 49.0664 193.183 51.7959 193.183 55.292C193.183 58.7588 192.24 61.4736 190.355 63.4365C188.471 65.3896 185.951 66.3662 182.797 66.3662C179.604 66.3662 177.064 65.3945 175.18 63.4512C173.295 61.498 172.353 58.8125 172.353 55.3945ZM176.82 55.248C176.82 57.6797 177.382 59.5254 178.505 60.7852C179.628 62.0352 181.054 62.6602 182.782 62.6602C184.511 62.6602 185.927 62.04 187.03 60.7998C188.144 59.5498 188.7 57.6797 188.7 55.1895C188.7 52.7285 188.158 50.8926 187.074 49.6816C186 48.4707 184.569 47.8652 182.782 47.8652C180.995 47.8652 179.555 48.4805 178.461 49.7109C177.367 50.9316 176.82 52.7773 176.82 55.248ZM196.566 44.5254H204.491C206.278 44.5254 207.641 44.6621 208.578 44.9355C209.838 45.3066 210.917 45.9658 211.815 46.9131C212.714 47.8604 213.397 49.0225 213.866 50.3994C214.335 51.7666 214.569 53.4561 214.569 55.4678C214.569 57.2354 214.35 58.7588 213.91 60.0381C213.373 61.6006 212.606 62.8652 211.61 63.832C210.858 64.5645 209.843 65.1357 208.563 65.5459C207.606 65.8486 206.327 66 204.726 66H196.566V44.5254ZM200.902 48.1582V62.3818H204.14C205.351 62.3818 206.225 62.3135 206.762 62.1768C207.465 62.001 208.046 61.7031 208.505 61.2832C208.974 60.8633 209.354 60.1748 209.647 59.2178C209.94 58.251 210.087 56.9375 210.087 55.2773C210.087 53.6172 209.94 52.3428 209.647 51.4541C209.354 50.5654 208.944 49.8721 208.417 49.374C207.89 48.876 207.221 48.5391 206.41 48.3633C205.805 48.2266 204.618 48.1582 202.851 48.1582H200.902ZM218.261 66V44.5254H234.184V48.1582H222.597V52.9189H233.378V56.5371H222.597V62.3818H234.594V66H218.261Z"/>
</mask>
<path d="M103.3 66V44.7012H107.636V62.3818H118.417V66H103.3ZM121.391 66V44.5254H125.727V66H121.391ZM129.916 66V44.5254H134.135L142.924 58.8662V44.5254H146.952V66H142.602L133.944 51.9961V66H129.916ZM165.292 58.1045L169.496 59.4375C168.852 61.7812 167.777 63.5244 166.273 64.667C164.779 65.7998 162.88 66.3662 160.575 66.3662C157.724 66.3662 155.38 65.3945 153.544 63.4512C151.708 61.498 150.79 58.832 150.79 55.4531C150.79 51.8789 151.713 49.1055 153.559 47.1328C155.404 45.1504 157.831 44.1592 160.839 44.1592C163.466 44.1592 165.6 44.9355 167.24 46.4883C168.217 47.4062 168.949 48.7246 169.438 50.4434L165.146 51.4688C164.892 50.3555 164.359 49.4766 163.549 48.832C162.748 48.1875 161.771 47.8652 160.619 47.8652C159.027 47.8652 157.733 48.4365 156.737 49.5791C155.751 50.7217 155.258 52.5723 155.258 55.1309C155.258 57.8457 155.746 59.7793 156.723 60.9316C157.699 62.084 158.969 62.6602 160.531 62.6602C161.684 62.6602 162.675 62.2939 163.505 61.5615C164.335 60.8291 164.931 59.6768 165.292 58.1045ZM172.353 55.3945C172.353 53.207 172.68 51.3711 173.334 49.8867C173.822 48.793 174.486 47.8115 175.326 46.9424C176.176 46.0732 177.104 45.4287 178.109 45.0088C179.447 44.4424 180.99 44.1592 182.738 44.1592C185.902 44.1592 188.432 45.1406 190.326 47.1035C192.23 49.0664 193.183 51.7959 193.183 55.292C193.183 58.7588 192.24 61.4736 190.355 63.4365C188.471 65.3896 185.951 66.3662 182.797 66.3662C179.604 66.3662 177.064 65.3945 175.18 63.4512C173.295 61.498 172.353 58.8125 172.353 55.3945ZM176.82 55.248C176.82 57.6797 177.382 59.5254 178.505 60.7852C179.628 62.0352 181.054 62.6602 182.782 62.6602C184.511 62.6602 185.927 62.04 187.03 60.7998C188.144 59.5498 188.7 57.6797 188.7 55.1895C188.7 52.7285 188.158 50.8926 187.074 49.6816C186 48.4707 184.569 47.8652 182.782 47.8652C180.995 47.8652 179.555 48.4805 178.461 49.7109C177.367 50.9316 176.82 52.7773 176.82 55.248ZM196.566 44.5254H204.491C206.278 44.5254 207.641 44.6621 208.578 44.9355C209.838 45.3066 210.917 45.9658 211.815 46.9131C212.714 47.8604 213.397 49.0225 213.866 50.3994C214.335 51.7666 214.569 53.4561 214.569 55.4678C214.569 57.2354 214.35 58.7588 213.91 60.0381C213.373 61.6006 212.606 62.8652 211.61 63.832C210.858 64.5645 209.843 65.1357 208.563 65.5459C207.606 65.8486 206.327 66 204.726 66H196.566V44.5254ZM200.902 48.1582V62.3818H204.14C205.351 62.3818 206.225 62.3135 206.762 62.1768C207.465 62.001 208.046 61.7031 208.505 61.2832C208.974 60.8633 209.354 60.1748 209.647 59.2178C209.94 58.251 210.087 56.9375 210.087 55.2773C210.087 53.6172 209.94 52.3428 209.647 51.4541C209.354 50.5654 208.944 49.8721 208.417 49.374C207.89 48.876 207.221 48.5391 206.41 48.3633C205.805 48.2266 204.618 48.1582 202.851 48.1582H200.902ZM218.261 66V44.5254H234.184V48.1582H222.597V52.9189H233.378V56.5371H222.597V62.3818H234.594V66H218.261Z" fill="#011765"/>
<path d="M103.3 66H102.3V67H103.3V66ZM103.3 44.7012V43.7012H102.3V44.7012H103.3ZM107.636 44.7012H108.636V43.7012H107.636V44.7012ZM107.636 62.3818H106.636V63.3818H107.636V62.3818ZM118.417 62.3818H119.417V61.3818H118.417V62.3818ZM118.417 66V67H119.417V66H118.417ZM104.3 66V44.7012H102.3V66H104.3ZM103.3 45.7012H107.636V43.7012H103.3V45.7012ZM106.636 44.7012V62.3818H108.636V44.7012H106.636ZM107.636 63.3818H118.417V61.3818H107.636V63.3818ZM117.417 62.3818V66H119.417V62.3818H117.417ZM118.417 65H103.3V67H118.417V65ZM121.391 66H120.391V67H121.391V66ZM121.391 44.5254V43.5254H120.391V44.5254H121.391ZM125.727 44.5254H126.727V43.5254H125.727V44.5254ZM125.727 66V67H126.727V66H125.727ZM122.391 66V44.5254H120.391V66H122.391ZM121.391 45.5254H125.727V43.5254H121.391V45.5254ZM124.727 44.5254V66H126.727V44.5254H124.727ZM125.727 65H121.391V67H125.727V65ZM129.916 66H128.916V67H129.916V66ZM129.916 44.5254V43.5254H128.916V44.5254H129.916ZM134.135 44.5254L134.987 44.0028L134.695 43.5254H134.135V44.5254ZM142.924 58.8662L142.071 59.3888L143.924 62.4116V58.8662H142.924ZM142.924 44.5254V43.5254H141.924V44.5254H142.924ZM146.952 44.5254H147.952V43.5254H146.952V44.5254ZM146.952 66V67H147.952V66H146.952ZM142.602 66L141.751 66.5258L142.044 67H142.602V66ZM133.944 51.9961L134.795 51.4703L132.944 48.4768V51.9961H133.944ZM133.944 66V67H134.944V66H133.944ZM130.916 66V44.5254H128.916V66H130.916ZM129.916 45.5254H134.135V43.5254H129.916V45.5254ZM133.282 45.0479L142.071 59.3888L143.776 58.3437L134.987 44.0028L133.282 45.0479ZM143.924 58.8662V44.5254H141.924V58.8662H143.924ZM142.924 45.5254H146.952V43.5254H142.924V45.5254ZM145.952 44.5254V66H147.952V44.5254H145.952ZM146.952 65H142.602V67H146.952V65ZM143.452 65.4742L134.795 51.4703L133.094 52.5219L141.751 66.5258L143.452 65.4742ZM132.944 51.9961V66H134.944V51.9961H132.944ZM133.944 65H129.916V67H133.944V65ZM165.292 58.1045L165.594 57.1513L164.56 56.8234L164.317 57.8805L165.292 58.1045ZM169.496 59.4375L170.46 59.7027L170.715 58.775L169.798 58.4843L169.496 59.4375ZM166.273 64.667L166.878 65.4639L166.878 65.4633L166.273 64.667ZM153.544 63.4512L152.815 64.1361L152.817 64.1379L153.544 63.4512ZM153.559 47.1328L154.289 47.816L154.29 47.8142L153.559 47.1328ZM167.24 46.4883L166.553 47.2146L166.555 47.2169L167.24 46.4883ZM169.438 50.4434L169.67 51.416L170.685 51.1736L170.399 50.1701L169.438 50.4434ZM165.146 51.4688L164.171 51.6911L164.395 52.6761L165.378 52.4414L165.146 51.4688ZM163.549 48.832L162.922 49.6111L162.926 49.6147L163.549 48.832ZM156.737 49.5791L155.984 48.922L155.98 48.9257L156.737 49.5791ZM164.99 59.0577L169.194 60.3907L169.798 58.4843L165.594 57.1513L164.99 59.0577ZM168.532 59.1723C167.929 61.3656 166.953 62.8948 165.668 63.8707L166.878 65.4633C168.602 64.154 169.774 62.1969 170.46 59.7027L168.532 59.1723ZM165.669 63.8701C164.386 64.8433 162.713 65.3662 160.575 65.3662V67.3662C163.047 67.3662 165.173 66.7563 166.878 65.4639L165.669 63.8701ZM160.575 65.3662C157.978 65.3662 155.904 64.4934 154.271 62.7644L152.817 64.1379C154.856 66.2956 157.469 67.3662 160.575 67.3662V65.3662ZM154.273 62.7663C152.653 61.0435 151.79 58.6467 151.79 55.4531H149.79C149.79 59.0174 150.763 61.9526 152.815 64.1361L154.273 62.7663ZM151.79 55.4531C151.79 52.0486 152.666 49.55 154.289 47.816L152.828 46.4496C150.759 48.6609 149.79 51.7093 149.79 55.4531H151.79ZM154.29 47.8142C155.925 46.0586 158.075 45.1592 160.839 45.1592V43.1592C157.587 43.1592 154.884 44.2422 152.827 46.4514L154.29 47.8142ZM160.839 45.1592C163.255 45.1592 165.128 45.8661 166.553 47.2146L167.928 45.762C166.071 44.005 163.677 43.1592 160.839 43.1592V45.1592ZM166.555 47.2169C167.363 47.9762 168.021 49.1157 168.476 50.7166L170.399 50.1701C169.878 48.3335 169.07 46.8363 167.925 45.7597L166.555 47.2169ZM169.205 49.4707L164.913 50.4961L165.378 52.4414L169.67 51.416L169.205 49.4707ZM166.12 51.2464C165.822 49.9359 165.178 48.8499 164.171 48.0493L162.926 49.6147C163.541 50.1032 163.962 50.7751 164.171 51.6911L166.12 51.2464ZM164.176 48.053C163.176 47.2482 161.97 46.8652 160.619 46.8652V48.8652C161.573 48.8652 162.32 49.1268 162.922 49.611L164.176 48.053ZM160.619 46.8652C158.755 46.8652 157.18 47.5494 155.984 48.922L157.491 50.2362C158.287 49.3236 159.3 48.8652 160.619 48.8652V46.8652ZM155.98 48.9257C154.76 50.3394 154.258 52.4857 154.258 55.1309H156.258C156.258 52.6589 156.742 51.1039 157.494 50.2326L155.98 48.9257ZM154.258 55.1309C154.258 57.9139 154.748 60.1485 155.96 61.5782L157.486 60.2851C156.744 59.41 156.258 57.7776 156.258 55.1309H154.258ZM155.96 61.5782C157.134 62.9634 158.686 63.6602 160.531 63.6602V61.6602C159.251 61.6602 158.265 61.2045 157.486 60.2851L155.96 61.5782ZM160.531 63.6602C161.916 63.6602 163.146 63.2121 164.167 62.3114L162.843 60.8117C162.204 61.3758 161.451 61.6602 160.531 61.6602V63.6602ZM164.167 62.3114C165.21 61.3905 165.879 60.0154 166.267 58.3285L164.317 57.8805C163.982 59.3382 163.46 60.2677 162.843 60.8117L164.167 62.3114ZM173.334 49.8867L172.421 49.4791L172.419 49.4834L173.334 49.8867ZM175.326 46.9424L174.611 46.2433L174.607 46.2475L175.326 46.9424ZM178.109 45.0088L178.495 45.9316L178.499 45.9297L178.109 45.0088ZM190.326 47.1035L189.607 47.798L189.608 47.7998L190.326 47.1035ZM190.355 63.4365L191.075 64.1309L191.077 64.1291L190.355 63.4365ZM175.18 63.4512L174.46 64.1456L174.462 64.1474L175.18 63.4512ZM178.505 60.7852L177.758 61.4506L177.761 61.4535L178.505 60.7852ZM187.03 60.7998L186.284 60.1347L186.283 60.1351L187.03 60.7998ZM187.074 49.6816L186.326 50.3453L186.329 50.3486L187.074 49.6816ZM178.461 49.7109L179.206 50.3783L179.208 50.3753L178.461 49.7109ZM173.353 55.3945C173.353 53.3002 173.667 51.6113 174.249 50.2901L172.419 49.4834C171.693 51.1309 171.353 53.1139 171.353 55.3945H173.353ZM174.247 50.2944C174.688 49.3079 175.286 48.4235 176.045 47.6373L174.607 46.2475C173.687 47.1996 172.957 48.278 172.421 49.4791L174.247 50.2944ZM176.041 47.6414C176.808 46.8572 177.626 46.2942 178.495 45.9316L177.724 44.086C176.581 44.5632 175.544 45.2893 174.611 46.2434L176.041 47.6414ZM178.499 45.9297C179.691 45.4249 181.098 45.1592 182.738 45.1592V43.1592C180.883 43.1592 179.203 43.4598 177.72 44.0879L178.499 45.9297ZM182.738 45.1592C185.678 45.1592 187.931 46.0619 189.607 47.798L191.046 46.409C188.932 44.2194 186.127 43.1592 182.738 43.1592V45.1592ZM189.608 47.7998C191.285 49.5282 192.183 51.9804 192.183 55.292H194.183C194.183 51.6114 193.176 48.6046 191.044 46.4072L189.608 47.7998ZM192.183 55.292C192.183 58.5744 191.295 61.0144 189.634 62.7439L191.077 64.1291C193.186 61.9328 194.183 58.9432 194.183 55.292H192.183ZM189.636 62.7421C187.97 64.468 185.728 65.3662 182.797 65.3662V67.3662C186.175 67.3662 188.971 66.3113 191.075 64.1309L189.636 62.7421ZM182.797 65.3662C179.822 65.3662 177.56 64.4694 175.898 62.755L174.462 64.1474C176.569 66.3197 179.386 67.3662 182.797 67.3662V65.3662ZM175.899 62.7568C174.238 61.0352 173.353 58.6238 173.353 55.3945H171.353C171.353 59.0012 172.352 61.9609 174.46 64.1456L175.899 62.7568ZM175.82 55.248C175.82 57.8183 176.413 59.9411 177.758 61.4506L179.251 60.1197C178.351 59.1097 177.82 57.5411 177.82 55.248H175.82ZM177.761 61.4535C179.08 62.9214 180.779 63.6602 182.782 63.6602V61.6602C181.328 61.6602 180.176 61.1489 179.249 60.1168L177.761 61.4535ZM182.782 63.6602C184.783 63.6602 186.475 62.9278 187.777 61.4645L186.283 60.1351C185.378 61.1522 184.239 61.6602 182.782 61.6602V63.6602ZM187.777 61.4649C189.117 59.9602 189.7 57.8083 189.7 55.1895H187.7C187.7 57.551 187.17 59.1394 186.284 60.1347L187.777 61.4649ZM189.7 55.1895C189.7 52.605 189.134 50.4834 187.819 49.0147L186.329 50.3486C187.182 51.3018 187.7 52.852 187.7 55.1895H189.7ZM187.822 49.018C186.537 47.5694 184.822 46.8652 182.782 46.8652V48.8652C184.317 48.8652 185.463 49.372 186.326 50.3453L187.822 49.018ZM182.782 46.8652C180.737 46.8652 179.015 47.5829 177.714 49.0466L179.208 50.3753C180.095 49.378 181.253 48.8652 182.782 48.8652V46.8652ZM177.716 49.0436C176.392 50.5215 175.82 52.6524 175.82 55.248H177.82C177.82 52.9023 178.342 51.3418 179.206 50.3783L177.716 49.0436ZM196.566 44.5254V43.5254H195.566V44.5254H196.566ZM208.578 44.9355L208.861 43.9763L208.858 43.9755L208.578 44.9355ZM213.866 50.3994L212.92 50.7217L212.92 50.7237L213.866 50.3994ZM213.91 60.0381L214.856 60.3632L214.856 60.363L213.91 60.0381ZM211.61 63.832L210.914 63.1144L210.913 63.1157L211.61 63.832ZM208.563 65.5459L208.865 66.4993L208.869 66.4982L208.563 65.5459ZM196.566 66H195.566V67H196.566V66ZM200.902 48.1582V47.1582H199.902V48.1582H200.902ZM200.902 62.3818H199.902V63.3818H200.902V62.3818ZM206.762 62.1768L206.519 61.2066L206.515 61.2077L206.762 62.1768ZM208.505 61.2832L207.838 60.5383L207.83 60.5454L208.505 61.2832ZM209.647 59.2178L210.604 59.5105L210.604 59.5078L209.647 59.2178ZM209.647 51.4541L208.698 51.7672L209.647 51.4541ZM206.41 48.3633L206.19 49.3388L206.198 49.3406L206.41 48.3633ZM196.566 45.5254H204.491V43.5254H196.566V45.5254ZM204.491 45.5254C206.248 45.5254 207.498 45.6621 208.298 45.8955L208.858 43.9755C207.783 43.6621 206.308 43.5254 204.491 43.5254V45.5254ZM208.296 45.8948C209.387 46.2164 210.313 46.7826 211.09 47.6012L212.541 46.2249C211.521 45.1491 210.288 44.3969 208.861 43.9763L208.296 45.8948ZM211.09 47.6012C211.878 48.4325 212.492 49.4655 212.92 50.7217L214.813 50.0772C214.303 48.5794 213.549 47.2882 212.541 46.2249L211.09 47.6012ZM212.92 50.7237C213.342 51.9545 213.569 53.5265 213.569 55.4678H215.569C215.569 53.3856 215.328 51.5787 214.812 50.0751L212.92 50.7237ZM213.569 55.4678C213.569 57.1568 213.359 58.565 212.964 59.7132L214.856 60.363C215.34 58.9526 215.569 57.3139 215.569 55.4678H213.569ZM212.964 59.713C212.469 61.155 211.778 62.2761 210.914 63.1145L212.307 64.5496C213.435 63.4544 214.277 62.0462 214.856 60.3632L212.964 59.713ZM210.913 63.1157C210.298 63.7143 209.43 64.2179 208.258 64.5936L208.869 66.4982C210.255 66.0536 211.419 65.4146 212.308 64.5484L210.913 63.1157ZM208.262 64.5925C207.443 64.8516 206.278 65 204.726 65V67C206.376 67 207.77 66.8457 208.865 66.4993L208.262 64.5925ZM204.726 65H196.566V67H204.726V65ZM197.566 66V44.5254H195.566V66H197.566ZM199.902 48.1582V62.3818H201.902V48.1582H199.902ZM200.902 63.3818H204.14V61.3818H200.902V63.3818ZM204.14 63.3818C205.36 63.3818 206.341 63.3157 207.008 63.1459L206.515 61.2077C206.108 61.3113 205.342 61.3818 204.14 61.3818V63.3818ZM207.004 63.1469C207.842 62.9375 208.579 62.5703 209.18 62.021L207.83 60.5454C207.512 60.8359 207.088 61.0645 206.519 61.2066L207.004 63.1469ZM209.172 62.028C209.834 61.4347 210.286 60.5484 210.604 59.5105L208.691 58.9251C208.423 59.8013 208.113 60.2919 207.838 60.5384L209.172 62.028ZM210.604 59.5078C210.938 58.4061 211.087 56.9813 211.087 55.2773H209.087C209.087 56.8937 208.943 58.0958 208.69 58.9278L210.604 59.5078ZM211.087 55.2773C211.087 53.5797 210.94 52.1801 210.597 51.141L208.698 51.7672C208.941 52.5054 209.087 53.6547 209.087 55.2773H211.087ZM210.597 51.141C210.267 50.1391 209.782 49.2874 209.104 48.647L207.73 50.101C208.107 50.4568 208.442 50.9917 208.698 51.7672L210.597 51.141ZM209.104 48.647C208.426 48.0067 207.585 47.5947 206.622 47.386L206.198 49.3406C206.857 49.4834 207.354 49.7452 207.73 50.101L209.104 48.647ZM206.63 47.3878C205.899 47.2228 204.603 47.1582 202.851 47.1582V49.1582C204.633 49.1582 205.71 49.2303 206.19 49.3387L206.63 47.3878ZM202.851 47.1582H200.902V49.1582H202.851V47.1582ZM218.261 66H217.261V67H218.261V66ZM218.261 44.5254V43.5254H217.261V44.5254H218.261ZM234.184 44.5254H235.184V43.5254H234.184V44.5254ZM234.184 48.1582V49.1582H235.184V48.1582H234.184ZM222.597 48.1582V47.1582H221.597V48.1582H222.597ZM222.597 52.9189H221.597V53.9189H222.597V52.9189ZM233.378 52.9189H234.378V51.9189H233.378V52.9189ZM233.378 56.5371V57.5371H234.378V56.5371H233.378ZM222.597 56.5371V55.5371H221.597V56.5371H222.597ZM222.597 62.3818H221.597V63.3818H222.597V62.3818ZM234.594 62.3818H235.594V61.3818H234.594V62.3818ZM234.594 66V67H235.594V66H234.594ZM219.261 66V44.5254H217.261V66H219.261ZM218.261 45.5254H234.184V43.5254H218.261V45.5254ZM233.184 44.5254V48.1582H235.184V44.5254H233.184ZM234.184 47.1582H222.597V49.1582H234.184V47.1582ZM221.597 48.1582V52.9189H223.597V48.1582H221.597ZM222.597 53.9189H233.378V51.9189H222.597V53.9189ZM232.378 52.9189V56.5371H234.378V52.9189H232.378ZM233.378 55.5371H222.597V57.5371H233.378V55.5371ZM221.597 56.5371V62.3818H223.597V56.5371H221.597ZM222.597 63.3818H234.594V61.3818H222.597V63.3818ZM233.594 62.3818V66H235.594V62.3818H233.594ZM234.594 65H218.261V67H234.594V65Z" fill="black" mask="url(#path-7-outside-2_2520_39)"/>
</g>
<defs>
<filter id="filter0_d_2520_39" x="250" y="47.3887" width="80.5065" height="26.916" filterUnits="userSpaceOnUse" color-interpolation-filters="sRGB">
<feFlood flood-opacity="0" result="BackgroundImageFix"/>
<feColorMatrix in="SourceAlpha" type="matrix" values="0 0 0 0 0 0 0 0 0 0 0 0 0 0 0 0 0 0 127 0" result="hardAlpha"/>
<feOffset dy="4"/>
<feGaussianBlur stdDeviation="2"/>
<feComposite in2="hardAlpha" operator="out"/>
<feColorMatrix type="matrix" values="0 0 0 0 0 0 0 0 0 0 0 0 0 0 0 0 0 0 0.25 0"/>
<feBlend mode="normal" in2="BackgroundImageFix" result="effect1_dropShadow_2520_39"/>
<feBlend mode="normal" in="SourceGraphic" in2="effect1_dropShadow_2520_39" result="shape"/>
</filter>
<filter id="filter1_d_2520_39" x="99.2998" y="44.1592" width="139.294" height="30.207" filterUnits="userSpaceOnUse" color-interpolation-filters="sRGB">
<feFlood flood-opacity="0" result="BackgroundImageFix"/>
<feColorMatrix in="SourceAlpha" type="matrix" values="0 0 0 0 0 0 0 0 0 0 0 0 0 0 0 0 0 0 127 0" result="hardAlpha"/>
<feOffset dy="4"/>
<feGaussianBlur stdDeviation="2"/>
<feComposite in2="hardAlpha" operator="out"/>
<feColorMatrix type="matrix" values="0 0 0 0 0 0 0 0 0 0 0 0 0 0 0 0 0 0 0.25 0"/>
<feBlend mode="normal" in2="BackgroundImageFix" result="effect1_dropShadow_2520_39"/>
<feBlend mode="normal" in="SourceGraphic" in2="effect1_dropShadow_2520_39" result="shape"/>
</filter>
</defs>
</svg>
